# xmcd
#
# Track frame offsets:
# 150
# 3065
# 19295
# 37225
# 53302
# 72322
# 91290
# 109035
# 122938
# 140074
# 155671
# 174186
# 190367
# 204887
# 221068
#
# Disc length: 3249 seconds
#
#
# Revision: 1
# Processed by: cddbd v1.5.2PL0 Copyright (c) Steve Scherf et al.
# Submitted via: FreeRIP 2.945 
#
DISCID=cf0caf0f
DTITLE=PG - De Um Lado a Outro
DYEAR=2006
DGENRE=Gospel and Religious
TTITLE0=Intro
TTITLE1=A Batalha
TTITLE2=Trono de Deus
TTITLE3=Entrega
TTITLE4=Aclame ao Senhor
TTITLE5=Resposta
TTITLE6=Vou te Escultar
TTITLE7=De um lado a Outro
TTITLE8=Reflexão
TTITLE9=Minha Terra
TTITLE10=Meu Senhor
TTITLE11=Visão de Deus
TTITLE12=Promessas
TTITLE13=Deus disse Assim
TTITLE14=Tudo Certo
EXTD=
EXTT0=
EXTT1=
EXTT2=
EXTT3=
EXTT4=
EXTT5=
EXTT6=
EXTT7=
EXTT8=
EXTT9=
EXTT10=
EXTT11=
EXTT12=
EXTT13=
EXTT14=
PLAYORDER=
